# Blender v2.72 (sub 0) OBJ File: 'coin.blend'
# www.blender.org
mtllib coin.mtl
o Cylinder
v -0.025000 0.165077 -0.085505
v 0.025000 0.165077 -0.085505
v -0.025000 0.152910 -0.038031
v 0.025000 0.152910 -0.038031
v -0.025000 0.150238 0.010905
v 0.025000 0.150238 0.010905
v -0.025000 0.157165 0.059421
v 0.025000 0.157165 0.059421
v -0.025000 0.173423 0.105655
v 0.025000 0.173423 0.105655
v -0.025000 0.198389 0.147827
v 0.025000 0.198389 0.147827
v -0.025000 0.231102 0.184319
v 0.025000 0.231102 0.184319
v -0.025000 0.270307 0.213728
v 0.025000 0.270307 0.213728
v -0.025000 0.314495 0.234923
v 0.025000 0.314495 0.234923
v -0.025000 0.361969 0.247090
v 0.025000 0.361969 0.247090
v -0.025000 0.410905 0.249762
v 0.025000 0.410905 0.249762
v -0.025000 0.459421 0.242836
v 0.025000 0.459421 0.242836
v -0.025000 0.505655 0.226577
v 0.025000 0.505655 0.226577
v -0.025000 0.547827 0.201611
v 0.025000 0.547827 0.201611
v -0.025000 0.584319 0.168898
v 0.025000 0.584319 0.168898
v -0.025000 0.613728 0.129693
v 0.025000 0.613728 0.129693
v -0.025000 0.634923 0.085505
v 0.025000 0.634923 0.085505
v -0.025000 0.647090 0.038031
v 0.025000 0.647090 0.038031
v -0.025000 0.649762 -0.010905
v 0.025000 0.649762 -0.010905
v -0.025000 0.642835 -0.059422
v 0.025000 0.642835 -0.059422
v -0.025000 0.626577 -0.105655
v 0.025000 0.626577 -0.105655
v -0.025000 0.601611 -0.147828
v 0.025000 0.601611 -0.147828
v -0.025000 0.568897 -0.184319
v 0.025000 0.568897 -0.184319
v -0.025000 0.529693 -0.213728
v 0.025000 0.529693 -0.213728
v -0.025000 0.485505 -0.234923
v 0.025000 0.485505 -0.234923
v -0.025000 0.438031 -0.247090
v 0.025000 0.438031 -0.247090
v -0.025000 0.389095 -0.249762
v 0.025000 0.389095 -0.249762
v -0.025000 0.340578 -0.242835
v 0.025000 0.340578 -0.242835
v -0.025000 0.294345 -0.226577
v 0.025000 0.294345 -0.226577
v -0.025000 0.252172 -0.201611
v 0.025000 0.252172 -0.201611
v -0.025000 0.215680 -0.168897
v 0.025000 0.215680 -0.168897
v -0.025000 0.186272 -0.129693
v 0.025000 0.186272 -0.129693
vt 0.649155 0.590079
vt 0.649155 0.549862
vt 0.749397 0.549862
vt 0.649155 0.511978
vt 0.749397 0.511978
vt 0.649155 0.477884
vt 0.749397 0.477884
vt 0.649155 0.448889
vt 0.749397 0.041835
vt 0.749397 0.070829
vt 0.649155 0.070829
vt 0.749397 0.104924
vt 0.649155 0.104924
vt 0.749397 0.142808
vt 0.649155 0.142808
vt 0.749397 0.183025
vt 0.649155 0.183025
vt 0.749397 0.224030
vt 0.649155 0.224030
vt 0.749397 0.264247
vt 0.649155 0.264247
vt 0.749397 0.302131
vt 0.649155 0.302131
vt 0.749397 0.336225
vt 0.649155 0.336225
vt 0.749397 0.365220
vt 0.649155 0.365220
vt 0.949879 0.656295
vt 0.849638 0.656295
vt 0.849638 0.622200
vt 0.849638 0.584317
vt 0.949879 0.584317
vt 0.849638 0.544100
vt 0.849638 0.503094
vt 0.949879 0.503094
vt 0.849638 0.462877
vt 0.949879 0.462877
vt 0.849638 0.424994
vt 0.849638 0.390899
vt 0.949879 0.390899
vt 0.949879 0.041835
vt 0.949879 0.075929
vt 0.849638 0.075929
vt 0.949879 0.113813
vt 0.849638 0.113813
vt 0.949879 0.154030
vt 0.849638 0.154030
vt 0.949879 0.195035
vt 0.849638 0.195035
vt 0.949879 0.235252
vt 0.949879 0.273136
vt 0.849638 0.273136
vt 0.949879 0.307230
vt 0.849638 0.307230
vt 0.649155 0.772274
vt 0.649155 0.743279
vt 0.749397 0.743279
vt 0.649155 0.709185
vt 0.749397 0.709185
vt 0.649155 0.671301
vt 0.749397 0.671301
vt 0.274954 0.458165
vt 0.050121 0.229498
vt 0.324081 0.041835
vt 0.749397 0.631084
vt 0.649155 0.631084
vt 0.539330 0.810720
vt 0.105799 0.882698
vt 0.050121 0.770503
vt 0.749397 0.590079
vt 0.749397 0.448889
vt 0.649155 0.041835
vt 0.949879 0.622200
vt 0.949879 0.544100
vt 0.949879 0.424994
vt 0.849638 0.041835
vt 0.849638 0.235252
vt 0.749397 0.772274
vt 0.372264 0.450166
vt 0.324081 0.458165
vt 0.493236 0.117302
vt 0.520530 0.151397
vt 0.458498 0.411693
vt 0.417651 0.434474
vt 0.493236 0.382698
vt 0.548914 0.270503
vt 0.539330 0.310720
vt 0.520530 0.348603
vt 0.078505 0.151397
vt 0.105798 0.117302
vt 0.548914 0.229498
vt 0.417651 0.065526
vt 0.458498 0.088307
vt 0.372264 0.049834
vt 0.140536 0.088307
vt 0.274954 0.041835
vt 0.181384 0.065526
vt 0.226771 0.049834
vt 0.059705 0.189281
vt 0.059705 0.310720
vt 0.050121 0.270503
vt 0.105798 0.382698
vt 0.078505 0.348604
vt 0.140536 0.411693
vt 0.226771 0.450166
vt 0.181384 0.434474
vt 0.539330 0.189280
vt 0.539330 0.689280
vt 0.458498 0.588307
vt 0.493236 0.617302
vt 0.520530 0.848603
vt 0.493236 0.882698
vt 0.548914 0.729497
vt 0.548914 0.770503
vt 0.520530 0.651397
vt 0.417651 0.565526
vt 0.059705 0.689281
vt 0.226771 0.549834
vt 0.372263 0.549834
vt 0.324081 0.541835
vt 0.274954 0.541835
vt 0.181384 0.565526
vt 0.140536 0.588307
vt 0.078505 0.651397
vt 0.105798 0.617302
vt 0.050121 0.729498
vt 0.059705 0.810720
vt 0.458498 0.911693
vt 0.226771 0.950166
vt 0.181384 0.934474
vt 0.140536 0.911693
vt 0.324081 0.958165
vt 0.274954 0.958165
vt 0.417651 0.934474
vt 0.372264 0.950166
vt 0.078505 0.848604
vn 0.000000 -0.968700 -0.248300
vn 0.000000 -0.998500 -0.054500
vn 0.000000 -0.990000 0.141300
vn 0.000000 -0.943400 0.331700
vn 0.000000 -0.860500 0.509400
vn 0.000000 -0.744600 0.667500
vn 0.000000 -0.600100 0.799900
vn 0.000000 -0.432500 0.901600
vn 0.000000 -0.248300 0.968700
vn 0.000000 -0.054500 0.998500
vn 0.000000 0.141300 0.990000
vn 0.000000 0.331700 0.943400
vn 0.000000 0.509400 0.860500
vn 0.000000 0.667500 0.744600
vn 0.000000 0.799900 0.600100
vn 0.000000 0.901600 0.432500
vn 0.000000 0.968700 0.248300
vn 0.000000 0.998500 0.054500
vn 0.000000 0.990000 -0.141300
vn 0.000000 0.943400 -0.331700
vn 0.000000 0.860500 -0.509400
vn 0.000000 0.744600 -0.667500
vn 0.000000 0.600100 -0.799900
vn 0.000000 0.432500 -0.901600
vn 0.000000 0.248300 -0.968700
vn 0.000000 0.054500 -0.998500
vn 0.000000 -0.141300 -0.990000
vn 0.000000 -0.331800 -0.943400
vn 0.000000 -0.509400 -0.860500
vn 0.000000 -0.667500 -0.744600
vn 1.000000 -0.000000 0.000000
vn 0.000000 -0.901600 -0.432500
vn 0.000000 -0.799900 -0.600100
vn -1.000000 0.000000 -0.000000
vn 0.000000 0.331800 0.943400
vn 0.000000 0.943400 -0.331800
usemtl Material
s off
f 2/1/1 4/2/1 3/3/1
f 4/2/2 6/4/2 5/5/2
f 6/4/3 8/6/3 7/7/3
f 7/7/4 8/6/4 10/8/4
f 10/9/5 12/10/5 11/11/5
f 12/10/6 14/12/6 13/13/6
f 14/12/7 16/14/7 15/15/7
f 16/14/8 18/16/8 17/17/8
f 18/16/9 20/18/9 19/19/9
f 20/18/10 22/20/10 21/21/10
f 22/20/11 24/22/11 23/23/11
f 24/22/12 26/24/12 25/25/12
f 26/24/13 28/26/13 27/27/13
f 27/28/14 28/29/14 30/30/14
f 30/30/15 32/31/15 31/32/15
f 31/32/16 32/31/16 34/33/16
f 34/33/17 36/34/17 35/35/17
f 36/34/18 38/36/18 37/37/18
f 37/37/19 38/36/19 40/38/19
f 40/38/20 42/39/20 41/40/20
f 42/41/21 44/42/21 43/43/21
f 44/42/22 46/44/22 45/45/22
f 46/44/23 48/46/23 47/47/23
f 48/46/24 50/48/24 49/49/24
f 49/49/25 50/48/25 52/50/25
f 52/50/26 54/51/26 53/52/26
f 54/51/27 56/53/27 55/54/27
f 56/55/28 58/56/28 57/57/28
f 58/56/29 60/58/29 59/59/29
f 60/58/30 62/60/30 61/61/30
f 4/62/31 52/63/31 36/64/31
f 63/65/32 64/66/32 2/1/32
f 62/60/33 64/66/33 63/65/33
f 57/67/34 15/68/34 21/69/34
f 1/70/1 2/1/1 3/3/1
f 3/3/2 4/2/2 5/5/2
f 5/5/3 6/4/3 7/7/3
f 9/71/4 7/7/4 10/8/4
f 9/72/5 10/9/5 11/11/5
f 11/11/6 12/10/6 13/13/6
f 13/13/7 14/12/7 15/15/7
f 15/15/8 16/14/8 17/17/8
f 17/17/9 18/16/9 19/19/9
f 19/19/10 20/18/10 21/21/10
f 21/21/11 22/20/11 23/23/11
f 23/23/35 24/22/35 25/25/35
f 25/25/13 26/24/13 27/27/13
f 29/73/14 27/28/14 30/30/14
f 29/73/15 30/30/15 31/32/15
f 33/74/16 31/32/16 34/33/16
f 33/74/17 34/33/17 35/35/17
f 35/35/18 36/34/18 37/37/18
f 39/75/19 37/37/19 40/38/19
f 39/75/36 40/38/36 41/40/36
f 41/76/21 42/41/21 43/43/21
f 43/43/22 44/42/22 45/45/22
f 45/45/23 46/44/23 47/47/23
f 47/47/24 48/46/24 49/49/24
f 51/77/25 49/49/25 52/50/25
f 51/77/26 52/50/26 53/52/26
f 53/52/27 54/51/27 55/54/27
f 55/78/28 56/55/28 57/57/28
f 57/57/29 58/56/29 59/59/29
f 59/59/30 60/58/30 61/61/30
f 8/79/31 6/80/31 4/62/31
f 28/81/31 26/82/31 8/79/31
f 12/83/31 10/84/31 14/85/31
f 20/86/31 18/87/31 16/88/31
f 36/64/31 48/89/31 46/90/31
f 22/91/31 20/86/31 16/88/31
f 32/92/31 30/93/31 28/81/31
f 36/64/31 34/94/31 32/92/31
f 36/64/31 44/95/31 38/96/31
f 44/95/31 42/97/31 40/98/31
f 44/95/31 36/64/31 46/90/31
f 52/63/31 50/99/31 48/89/31
f 56/100/31 54/101/31 52/63/31
f 26/82/31 16/88/31 8/79/31
f 60/102/31 58/103/31 62/104/31
f 4/62/31 2/105/31 64/106/31
f 4/62/31 28/81/31 8/79/31
f 16/88/31 10/84/31 8/79/31
f 26/82/31 22/91/31 16/88/31
f 36/64/31 32/92/31 28/81/31
f 26/82/31 24/107/31 22/91/31
f 10/84/31 16/88/31 14/85/31
f 64/106/31 58/103/31 52/63/31
f 58/103/31 56/100/31 52/63/31
f 52/63/31 4/62/31 64/106/31
f 44/95/31 40/98/31 38/96/31
f 61/61/33 62/60/33 63/65/33
f 58/103/31 64/106/31 62/104/31
f 36/64/31 52/63/31 48/89/31
f 1/70/32 63/65/32 2/1/32
f 4/62/31 36/64/31 28/81/31
f 51/108/34 45/109/34 47/110/34
f 57/67/34 59/111/34 61/112/34
f 53/113/34 55/114/34 57/67/34
f 53/113/34 21/69/34 51/108/34
f 49/115/34 51/108/34 47/110/34
f 43/116/34 25/117/34 35/118/34
f 41/119/34 43/116/34 39/120/34
f 37/121/34 43/116/34 35/118/34
f 33/122/34 35/118/34 31/123/34
f 25/117/34 27/124/34 29/125/34
f 25/117/34 51/108/34 23/126/34
f 21/69/34 15/68/34 19/127/34
f 57/67/34 61/112/34 63/128/34
f 9/129/34 11/130/34 13/131/34
f 5/132/34 7/133/34 9/129/34
f 1/134/34 3/135/34 5/132/34
f 63/128/34 1/134/34 15/68/34
f 57/67/34 21/69/34 53/113/34
f 9/129/34 13/131/34 15/68/34
f 15/68/34 17/136/34 19/127/34
f 25/117/34 43/116/34 51/108/34
f 43/116/34 37/121/34 39/120/34
f 1/134/34 5/132/34 9/129/34
f 57/67/34 63/128/34 15/68/34
f 43/116/34 45/109/34 51/108/34
f 35/118/34 29/125/34 31/123/34
f 9/129/34 15/68/34 1/134/34
f 35/118/34 25/117/34 29/125/34
f 51/108/34 21/69/34 23/126/34
