mtllib tree.mtl
v 0.000000 1.000000 -0.800000
v 0.000000 2.500000 0.000000
v 0.156072 1.000000 -0.784628
v 0.306147 1.000000 -0.739104
v 0.444456 1.000000 -0.665176
v 0.565685 1.000000 -0.565685
v 0.665176 1.000000 -0.444456
v 0.739104 1.000000 -0.306147
v 0.784628 1.000000 -0.156072
v 0.800000 1.000000 -0.000000
v 0.784628 1.000000 0.156072
v 0.739104 1.000000 0.306147
v 0.665176 1.000000 0.444456
v 0.565685 1.000000 0.565685
v 0.444456 1.000000 0.665176
v 0.306147 1.000000 0.739104
v 0.156072 1.000000 0.784628
v -0.000000 1.000000 0.800000
v -0.156073 1.000000 0.784628
v -0.306147 1.000000 0.739103
v -0.444457 1.000000 0.665175
v -0.565686 1.000000 0.565685
v -0.665176 1.000000 0.444456
v -0.739104 1.000000 0.306146
v -0.784628 1.000000 0.156072
v -0.800000 1.000000 -0.000001
v -0.784628 1.000000 -0.156073
v -0.739103 1.000000 -0.306148
v -0.665175 1.000000 -0.444457
v -0.565685 1.000000 -0.565686
v -0.444455 1.000000 -0.665176
v -0.306146 1.000000 -0.739104
v -0.156071 1.000000 -0.784628
v 0.000000 0.000000 -0.200000
v 0.000000 1.000000 -0.200000
v 0.039018 0.000000 -0.196157
v 0.039018 1.000000 -0.196157
v 0.076537 0.000000 -0.184776
v 0.076537 1.000000 -0.184776
v 0.111114 0.000000 -0.166294
v 0.111114 1.000000 -0.166294
v 0.141421 0.000000 -0.141421
v 0.141421 1.000000 -0.141421
v 0.166294 0.000000 -0.111114
v 0.166294 1.000000 -0.111114
v 0.184776 0.000000 -0.076537
v 0.184776 1.000000 -0.076537
v 0.196157 0.000000 -0.039018
v 0.196157 1.000000 -0.039018
v 0.200000 0.000000 -0.000000
v 0.200000 1.000000 -0.000000
v 0.196157 0.000000 0.039018
v 0.196157 1.000000 0.039018
v 0.184776 0.000000 0.076537
v 0.184776 1.000000 0.076537
v 0.166294 0.000000 0.111114
v 0.166294 1.000000 0.111114
v 0.141421 0.000000 0.141421
v 0.141421 1.000000 0.141421
v 0.111114 0.000000 0.166294
v 0.111114 1.000000 0.166294
v 0.076537 0.000000 0.184776
v 0.076537 1.000000 0.184776
v 0.039018 0.000000 0.196157
v 0.039018 1.000000 0.196157
v -0.000000 0.000000 0.200000
v -0.000000 1.000000 0.200000
v -0.039018 0.000000 0.196157
v -0.039018 1.000000 0.196157
v -0.076537 0.000000 0.184776
v -0.076537 1.000000 0.184776
v -0.111114 0.000000 0.166294
v -0.111114 1.000000 0.166294
v -0.141421 0.000000 0.141421
v -0.141421 1.000000 0.141421
v -0.166294 0.000000 0.111114
v -0.166294 1.000000 0.111114
v -0.184776 0.000000 0.076537
v -0.184776 1.000000 0.076537
v -0.196157 0.000000 0.039018
v -0.196157 1.000000 0.039018
v -0.200000 0.000000 -0.000000
v -0.200000 1.000000 -0.000000
v -0.196157 0.000000 -0.039018
v -0.196157 1.000000 -0.039018
v -0.184776 0.000000 -0.076537
v -0.184776 1.000000 -0.076537
v -0.166294 0.000000 -0.111114
v -0.166294 1.000000 -0.111114
v -0.141421 0.000000 -0.141422
v -0.141421 1.000000 -0.141422
v -0.111114 0.000000 -0.166294
v -0.111114 1.000000 -0.166294
v -0.076536 0.000000 -0.184776
v -0.076536 1.000000 -0.184776
v -0.039018 0.000000 -0.196157
v -0.039018 1.000000 -0.196157
vt 0.858013 0.468476
vt 0.858013 0.832033
vt 0.831957 0.473757
vt 0.803425 0.481047
vt 0.773514 0.490066
vt 0.613507 0.401009
vt 0.640472 0.032695
vt 0.640472 0.403087
vt 0.584330 0.395993
vt 0.554061 0.388231
vt 0.523865 0.378022
vt 0.494900 0.365758
vt 0.468281 0.351911
vt 0.445030 0.337012
vt 0.426042 0.321634
vt 0.412044 0.306368
vt 0.238605 0.812068
vt 0.256629 0.445147
vt 0.256629 0.815150
vt 0.216525 0.806114
vt 0.191237 0.797516
vt 0.163713 0.786604
vt 0.135010 0.773799
vt 0.106231 0.759592
vt 0.078483 0.744529
vt 0.052832 0.729189
vt 0.030263 0.714161
vt 0.431033 0.534550
vt 0.626474 0.838868
vt 0.412044 0.549928
vt 0.454284 0.519652
vt 0.480903 0.505804
vt 0.509867 0.493540
vt 0.540064 0.483331
vt 0.570333 0.475570
vt 0.599510 0.470554
vt 0.626474 0.468476
vt 0.714162 0.511850
vt 0.687001 0.523778
vt 0.743374 0.500466
vt 0.066123 0.095606
vt 0.293284 0.071435
vt 0.315658 0.316846
vt 0.932425 0.469968
vt 0.940183 0.470278
vt 0.940183 0.684434
vt 0.948093 0.470278
vt 0.948093 0.684434
vt 0.955852 0.469968
vt 0.955851 0.684124
vt 0.963160 0.469359
vt 0.963160 0.683515
vt 0.969737 0.468476
vt 0.969737 0.682632
vt 0.963160 0.955444
vt 0.955852 0.954288
vt 0.955852 0.750413
vt 0.948093 0.953698
vt 0.948093 0.749824
vt 0.940183 0.953698
vt 0.940183 0.749824
vt 0.932425 0.954288
vt 0.932425 0.750413
vt 0.925117 0.955444
vt 0.925117 0.751570
vt 0.918540 0.957124
vt 0.918540 0.753249
vt 0.767777 0.249778
vt 0.762183 0.248653
vt 0.762183 0.034497
vt 0.755606 0.247770
vt 0.755606 0.033614
vt 0.748298 0.247161
vt 0.748298 0.033005
vt 0.740540 0.246851
vt 0.732630 0.246851
vt 0.732630 0.032695
vt 0.724872 0.247161
vt 0.724872 0.033005
vt 0.717564 0.247770
vt 0.717564 0.033614
vt 0.710986 0.248653
vt 0.710986 0.034497
vt 0.705393 0.249778
vt 0.705393 0.035622
vt 0.700998 0.251100
vt 0.700998 0.036944
vt 0.889488 0.244645
vt 0.885094 0.242132
vt 0.885094 0.038258
vt 0.879500 0.239995
vt 0.879500 0.036120
vt 0.872923 0.238315
vt 0.872923 0.034441
vt 0.865615 0.237159
vt 0.857857 0.236569
vt 0.857857 0.032695
vt 0.849947 0.236569
vt 0.849947 0.032695
vt 0.842188 0.237159
vt 0.842188 0.033284
vt 0.834880 0.238315
vt 0.828303 0.239995
vt 0.828303 0.036120
vt 0.925117 0.469359
vt 0.932425 0.684124
vt 0.918540 0.468476
vt 0.925117 0.683515
vt 0.096019 0.890225
vt 0.101612 0.951577
vt 0.044822 0.957620
vt 0.351518 0.189135
vt 0.333236 0.288424
vt 0.351518 0.223318
vt 0.345345 0.256843
vt 0.333236 0.124028
vt 0.345345 0.155609
vt 0.315658 0.095606
vt 0.175070 0.032695
vt 0.266976 0.052444
vt 0.237744 0.039363
vt 0.206711 0.032695
vt 0.144037 0.039363
vt 0.030263 0.189135
vt 0.048544 0.124028
vt 0.237744 0.373089
vt 0.206711 0.379758
vt 0.175070 0.379758
vt 0.048545 0.288424
vt 0.036436 0.256844
vt 0.030263 0.223318
vt 0.088497 0.341017
vt 0.066123 0.316846
vt 0.266976 0.360008
vt 0.114805 0.360008
vt 0.144037 0.373089
vt 0.293284 0.341017
vt 0.088497 0.071436
vt 0.036436 0.155609
vt 0.114805 0.052445
vt 0.963160 0.751570
vt 0.767777 0.035622
vt 0.740540 0.032695
vt 0.889488 0.040771
vt 0.865615 0.033284
vt 0.834880 0.034441
vt 0.918540 0.682632
vt 0.074375 0.967305
vt 0.051399 0.962368
vt 0.066465 0.967305
vt 0.058707 0.965638
vt 0.089441 0.962368
vt 0.082133 0.965638
vt 0.096019 0.957620
vt 0.110577 0.919650
vt 0.106007 0.944472
vt 0.109034 0.936577
vt 0.110577 0.928195
vt 0.109034 0.911268
vt 0.074375 0.880540
vt 0.089441 0.885477
vt 0.031807 0.936577
vt 0.030263 0.928195
vt 0.030263 0.919650
vt 0.051399 0.885477
vt 0.058707 0.882207
vt 0.066465 0.880540
vt 0.039228 0.896268
vt 0.044822 0.890225
vt 0.034834 0.944472
vt 0.034834 0.903373
vt 0.031807 0.911268
vt 0.039228 0.951578
vt 0.101612 0.896268
vt 0.082133 0.882207
vt 0.106007 0.903373
vn -0.256400 0.468800 -0.845300
vn 0.086600 0.468800 -0.879000
vn -0.416400 0.468800 -0.779000
vn -0.560400 0.468800 -0.682800
vn -0.682800 0.468800 -0.560400
vn -0.779000 0.468800 -0.416400
vn -0.845300 0.468800 -0.256400
vn -0.879000 0.468800 -0.086600
vn -0.879000 0.468800 0.086600
vn -0.845300 0.468800 0.256400
vn -0.779000 0.468800 0.416400
vn -0.682800 0.468800 0.560400
vn -0.560400 0.468800 0.682800
vn -0.416400 0.468800 0.779000
vn -0.256400 0.468800 0.845300
vn -0.086600 0.468800 0.879000
vn 0.086600 0.468800 0.879000
vn 0.256400 0.468800 0.845300
vn 0.416400 0.468800 0.779000
vn 0.560400 0.468800 0.682800
vn 0.682800 0.468800 0.560400
vn 0.779000 0.468800 0.416400
vn 0.845300 0.468800 0.256400
vn 0.879000 0.468800 0.086600
vn 0.879000 0.468800 -0.086600
vn 0.845300 0.468800 -0.256400
vn 0.779000 0.468800 -0.416400
vn 0.682800 0.468800 -0.560400
vn 0.560400 0.468800 -0.682800
vn 0.416400 0.468800 -0.779000
vn -0.086600 0.468800 -0.879000
vn 0.256400 0.468800 -0.845300
vn 0.000000 -1.000000 0.000000
vn 0.098000 0.000000 -0.995200
vn 0.290300 0.000000 -0.956900
vn 0.471400 0.000000 -0.881900
vn 0.634400 0.000000 -0.773000
vn 0.773000 0.000000 -0.634400
vn 0.881900 0.000000 -0.471400
vn 0.956900 0.000000 -0.290300
vn 0.995200 0.000000 -0.098000
vn 0.995200 0.000000 0.098000
vn 0.956900 0.000000 0.290300
vn 0.881900 0.000000 0.471400
vn 0.773000 0.000000 0.634400
vn 0.634400 0.000000 0.773000
vn 0.471400 0.000000 0.881900
vn 0.290300 0.000000 0.956900
vn 0.098000 0.000000 0.995200
vn -0.098000 0.000000 0.995200
vn -0.290300 0.000000 0.956900
vn -0.471400 0.000000 0.881900
vn -0.634400 0.000000 0.773000
vn -0.773000 0.000000 0.634400
vn -0.881900 0.000000 0.471400
vn -0.956900 0.000000 0.290300
vn -0.995200 0.000000 0.098000
vn -0.995200 0.000000 -0.098000
vn -0.956900 0.000000 -0.290300
vn -0.881900 0.000000 -0.471400
vn -0.773000 0.000000 -0.634400
vn -0.634400 0.000000 -0.773000
vn -0.471400 0.000000 -0.881900
vn -0.098000 0.000000 -0.995200
vn -0.290300 0.000000 -0.956900
usemtl Material
s off
f 32/1/1 2/2/1 33/3/1
f 1/4/2 2/2/2 3/5/2
f 31/6/3 2/7/3 32/8/3
f 30/9/4 2/7/4 31/6/4
f 29/10/5 2/7/5 30/9/5
f 28/11/6 2/7/6 29/10/6
f 27/12/7 2/7/7 28/11/7
f 26/13/8 2/7/8 27/12/8
f 25/14/9 2/7/9 26/13/9
f 24/15/10 2/7/10 25/14/10
f 23/16/11 2/7/11 24/15/11
f 22/17/12 2/18/12 23/19/12
f 21/20/13 2/18/13 22/17/13
f 20/21/14 2/18/14 21/20/14
f 19/22/15 2/18/15 20/21/15
f 18/23/16 2/18/16 19/22/16
f 17/24/17 2/18/17 18/23/17
f 16/25/18 2/18/18 17/24/18
f 15/26/19 2/18/19 16/25/19
f 14/27/20 2/18/20 15/26/20
f 13/28/21 2/29/21 14/30/21
f 12/31/22 2/29/22 13/28/22
f 11/32/23 2/29/23 12/31/23
f 10/33/24 2/29/24 11/32/24
f 9/34/25 2/29/25 10/33/25
f 8/35/26 2/29/26 9/34/26
f 7/36/27 2/29/27 8/35/27
f 6/37/28 2/29/28 7/36/28
f 5/38/29 2/2/29 6/39/29
f 4/40/30 2/2/30 5/38/30
f 33/3/31 2/2/31 1/4/31
f 3/5/32 2/2/32 4/40/32
f 18/41/33 26/42/33 1/43/33
f 35/44/34 37/45/34 36/46/34
f 37/45/35 39/47/35 38/48/35
f 39/47/36 41/49/36 40/50/36
f 41/49/37 43/51/37 42/52/37
f 43/51/38 45/53/38 44/54/38
f 45/55/39 47/56/39 46/57/39
f 47/56/40 49/58/40 48/59/40
f 49/58/41 51/60/41 50/61/41
f 51/60/42 53/62/42 52/63/42
f 53/62/43 55/64/43 54/65/43
f 55/64/44 57/66/44 56/67/44
f 57/68/45 59/69/45 58/70/45
f 59/69/46 61/71/46 60/72/46
f 61/71/47 63/73/47 62/74/47
f 62/74/48 63/73/48 65/75/48
f 65/75/49 67/76/49 66/77/49
f 67/76/50 69/78/50 68/79/50
f 69/78/51 71/80/51 70/81/51
f 71/80/52 73/82/52 72/83/52
f 73/82/53 75/84/53 74/85/53
f 75/84/54 77/86/54 76/87/54
f 77/88/55 79/89/55 78/90/55
f 79/89/56 81/91/56 80/92/56
f 81/91/57 83/93/57 82/94/57
f 82/94/58 83/93/58 85/95/58
f 85/95/59 87/96/59 86/97/59
f 87/96/60 89/98/60 88/99/60
f 89/98/61 91/100/61 90/101/61
f 90/101/62 91/100/62 93/102/62
f 93/102/63 95/103/63 94/104/63
f 97/105/64 35/44/64 34/106/64
f 95/107/65 97/105/65 96/108/65
f 66/109/33 82/110/33 34/111/33
f 1/43/33 30/112/33 33/113/33
f 30/112/33 31/114/33 32/115/33
f 28/116/33 29/117/33 30/112/33
f 26/42/33 27/118/33 28/116/33
f 26/42/33 22/119/33 25/120/33
f 24/121/33 25/120/33 23/122/33
f 36/46/35 37/45/35 38/48/35
f 21/123/33 22/119/33 18/41/33
f 18/41/33 15/124/33 17/125/33
f 5/126/33 6/127/33 7/128/33
f 12/129/33 13/130/33 14/131/33
f 10/132/33 11/133/33 12/129/33
f 10/132/33 4/134/33 9/135/33
f 8/136/33 5/126/33 7/128/33
f 30/112/33 32/115/33 33/113/33
f 1/43/33 3/137/33 4/134/33
f 19/138/33 21/123/33 18/41/33
f 26/42/33 28/116/33 30/112/33
f 15/124/33 16/139/33 17/125/33
f 19/138/33 20/140/33 21/123/33
f 15/124/33 18/41/33 1/43/33
f 10/132/33 12/129/33 14/131/33
f 25/120/33 22/119/33 23/122/33
f 8/136/33 9/135/33 5/126/33
f 26/42/33 30/112/33 1/43/33
f 18/41/33 22/119/33 26/42/33
f 14/131/33 15/124/33 1/43/33
f 9/135/33 4/134/33 5/126/33
f 34/106/34 35/44/34 36/46/34
f 10/132/33 1/43/33 4/134/33
f 1/43/33 10/132/33 14/131/33
f 38/48/36 39/47/36 40/50/36
f 40/50/37 41/49/37 42/52/37
f 42/52/38 43/51/38 44/54/38
f 44/141/39 45/55/39 46/57/39
f 46/57/40 47/56/40 48/59/40
f 48/59/41 49/58/41 50/61/41
f 50/61/42 51/60/42 52/63/42
f 52/63/43 53/62/43 54/65/43
f 54/65/44 55/64/44 56/67/44
f 56/142/45 57/68/45 58/70/45
f 58/70/46 59/69/46 60/72/46
f 60/72/47 61/71/47 62/74/47
f 64/143/48 62/74/48 65/75/48
f 64/143/49 65/75/49 66/77/49
f 66/77/50 67/76/50 68/79/50
f 68/79/51 69/78/51 70/81/51
f 70/81/52 71/80/52 72/83/52
f 72/83/53 73/82/53 74/85/53
f 74/85/54 75/84/54 76/87/54
f 76/144/55 77/88/55 78/90/55
f 78/90/56 79/89/56 80/92/56
f 80/92/57 81/91/57 82/94/57
f 84/145/58 82/94/58 85/95/58
f 84/145/59 85/95/59 86/97/59
f 86/97/60 87/96/60 88/99/60
f 88/99/61 89/98/61 90/101/61
f 92/146/62 90/101/62 93/102/62
f 92/146/63 93/102/63 94/104/63
f 96/108/64 97/105/64 34/106/64
f 94/147/65 95/107/65 96/108/65
f 34/111/33 90/148/33 96/149/33
f 90/148/33 92/150/33 94/151/33
f 86/152/33 88/153/33 90/148/33
f 82/110/33 84/154/33 86/152/33
f 82/110/33 74/155/33 80/156/33
f 78/157/33 80/156/33 76/158/33
f 72/159/33 74/155/33 66/109/33
f 66/109/33 60/160/33 64/161/33
f 40/162/33 42/163/33 44/164/33
f 54/165/33 56/166/33 58/167/33
f 50/168/33 52/169/33 54/165/33
f 50/168/33 38/170/33 48/171/33
f 46/172/33 40/162/33 44/164/33
f 90/148/33 94/151/33 96/149/33
f 34/111/33 36/173/33 38/170/33
f 68/174/33 72/159/33 66/109/33
f 82/110/33 86/152/33 90/148/33
f 60/160/33 62/175/33 64/161/33
f 68/174/33 70/176/33 72/159/33
f 60/160/33 66/109/33 34/111/33
f 50/168/33 54/165/33 58/167/33
f 80/156/33 74/155/33 76/158/33
f 46/172/33 48/171/33 40/162/33
f 82/110/33 90/148/33 34/111/33
f 66/109/33 74/155/33 82/110/33
f 58/167/33 60/160/33 34/111/33
f 48/171/33 38/170/33 40/162/33
f 50/168/33 34/111/33 38/170/33
f 34/111/33 50/168/33 58/167/33
